<?xml version="1.0" encoding="UTF-8"?>
<svg width="1200pt" height="1200pt" version="1.1" viewBox="0 0 1200 1200" xmlns="http://www.w3.org/2000/svg">
 <path d="m818.4 636h-181.2v-1.1992-146.4c14.398 8.3984 30 12 45.602 12 28.801 0 57.602-13.199 75.602-39.602 37.199-52.801 24-172.8 24-178.8 0-1.1992-1.1992-2.3984-1.1992-3.6016v-1.1992c-1.1992-1.1992-1.1992-2.3984-2.3984-2.3984l-1.1992-1.1992c-1.1992-1.1992-2.3984-1.1992-4.8008-2.3984h-1.1992-3.6016c-2.3984 0-37.199 8.3984-74.398 24-45.605-90-225.61-162-232.8-165.6-1.1992 0-2.3984 0-3.6016-1.1992h-1.1992c-1.1992 0-2.3984 0-3.6016 1.1992l-3.6016 3.6016v1.1992c-1.1992 1.1992-1.1992 2.3984-1.1992 3.6016-2.3984 8.3984-51.602 193.2-4.8008 286.8 16.801 33.602 46.801 58.801 82.801 70.801 14.398 4.8008 30 7.1992 44.398 7.1992 15.602 0 31.199-2.3984 46.801-8.3984l0.003906 141.59v1.1992h-201.6c-7.1992 0-12 4.8008-12 12v111.6c0 7.1992 4.8008 12 12 12h18l34.801 272.4c1.1992 6 6 10.801 12 10.801h273.6c6 0 10.801-4.8008 12-10.801l34.801-273.6h18c7.1992 0 12-4.8008 12-12l-0.003906-111.6c0-6-4.7969-12-12-12zm-76.797-331.2-106.8 151.2c-9.6016-9.6016-16.801-22.801-19.199-36-3.6016-18 1.1992-36 12-50.398 21.598-32.402 78-54 114-64.801zm-2.4023 142.8c-19.199 27.602-55.199 36-85.199 22.801l106.8-151.2c1.1992 40.797-1.1992 99.598-21.602 128.4zm-67.199-141.6c-25.199 13.199-50.398 28.801-63.602 49.199-7.1992 9.6016-12 20.398-14.398 31.199l-111.6-220.8c51.602 24.004 157.2 79.203 189.6 140.4zm-141.6 166.8c-30-9.6016-54-31.199-68.398-58.801-32.398-63.602-13.199-181.2-1.1992-237.6l148.8 295.2c-25.203 8.4023-54 9.6016-79.203 1.2031zm212.4 559.2h-252l-32.398-258h318zm63.598-284.4h-379.2v-87.602h379.2z"/>
</svg>
